<svg id="visual" viewBox="0 0 1920 1080" width="1920" height="1080" xmlns="http://www.w3.org/2000/svg" xmlns:xlink="http://www.w3.org/1999/xlink" version="1.1"><rect width="1920" height="1080" fill="#101010"></rect><g><g transform="translate(726 831)"><path d="M0 -259.5L224.7 -129.7L224.7 129.7L0 259.5L-224.7 129.7L-224.7 -129.7Z" fill="#82154e"></path></g><g transform="translate(75 471)"><path d="M0 -165L142.9 -82.5L142.9 82.5L0 165L-142.9 82.5L-142.9 -82.5Z" fill="#82154e"></path></g><g transform="translate(1141 66)"><path d="M0 -190L164.5 -95L164.5 95L0 190L-164.5 95L-164.5 -95Z" fill="#82154e"></path></g><g transform="translate(1503 1021)"><path d="M0 -211L182.7 -105.5L182.7 105.5L0 211L-182.7 105.5L-182.7 -105.5Z" fill="#82154e"></path></g></g></svg>