<svg id="visual" viewBox="0 0 1920 1080" width="1920" height="1080" xmlns="http://www.w3.org/2000/svg" xmlns:xlink="http://www.w3.org/1999/xlink" version="1.1"><rect width="1920" height="1080" fill="#101010"></rect><g><g transform="translate(188 388)"><path d="M0 -219.5L190.1 -109.8L190.1 109.8L0 219.5L-190.1 109.8L-190.1 -109.8Z" fill="#82154e"></path></g><g transform="translate(1188 518)"><path d="M0 -117L101.3 -58.5L101.3 58.5L0 117L-101.3 58.5L-101.3 -58.5Z" fill="#82154e"></path></g><g transform="translate(1644 1036)"><path d="M0 -192L166.3 -96L166.3 96L0 192L-166.3 96L-166.3 -96Z" fill="#82154e"></path></g><g transform="translate(264 942)"><path d="M0 -187L161.9 -93.5L161.9 93.5L0 187L-161.9 93.5L-161.9 -93.5Z" fill="#82154e"></path></g><g transform="translate(1775 107)"><path d="M0 -122L105.7 -61L105.7 61L0 122L-105.7 61L-105.7 -61Z" fill="#82154e"></path></g></g></svg>