<svg id="visual" viewBox="0 0 1920 1080" width="1920" height="1080" xmlns="http://www.w3.org/2000/svg" xmlns:xlink="http://www.w3.org/1999/xlink" version="1.1"><rect width="1920" height="1080" fill="#101010"></rect><g><g transform="translate(1891 458)"><path d="M0 -259.5L224.7 -129.7L224.7 129.7L0 259.5L-224.7 129.7L-224.7 -129.7Z" fill="#2e0c38"></path></g><g transform="translate(796 398)"><path d="M0 -169L146.4 -84.5L146.4 84.5L0 169L-146.4 84.5L-146.4 -84.5Z" fill="#2e0c38"></path></g><g transform="translate(478 1076)"><path d="M0 -209L181 -104.5L181 104.5L0 209L-181 104.5L-181 -104.5Z" fill="#2e0c38"></path></g><g transform="translate(410 4)"><path d="M0 -180L155.9 -90L155.9 90L0 180L-155.9 90L-155.9 -90Z" fill="#2e0c38"></path></g></g></svg>