<svg id="visual" viewBox="0 0 1920 1080" width="1920" height="1080" xmlns="http://www.w3.org/2000/svg" xmlns:xlink="http://www.w3.org/1999/xlink" version="1.1"><rect width="1920" height="1080" fill="#101010"></rect><g><g transform="translate(1024 441)"><path d="M0 -236.6L204.9 -118.3L204.9 118.3L0 236.6L-204.9 118.3L-204.9 -118.3Z" fill="#2e0c38"></path></g><g transform="translate(768 883)"><path d="M0 -118L102.2 -59L102.2 59L0 118L-102.2 59L-102.2 -59Z" fill="#2e0c38"></path></g><g transform="translate(1726 399)"><path d="M0 -131L113.4 -65.5L113.4 65.5L0 131L-113.4 65.5L-113.4 -65.5Z" fill="#2e0c38"></path></g><g transform="translate(1839 1077)"><path d="M0 -136L117.8 -68L117.8 68L0 136L-117.8 68L-117.8 -68Z" fill="#2e0c38"></path></g><g transform="translate(90 904)"><path d="M0 -145L125.6 -72.5L125.6 72.5L0 145L-125.6 72.5L-125.6 -72.5Z" fill="#2e0c38"></path></g></g></svg>