<svg id="visual" viewBox="0 0 1920 1080" width="1920" height="1080" xmlns="http://www.w3.org/2000/svg" xmlns:xlink="http://www.w3.org/1999/xlink" version="1.1"><rect x="0" y="0" width="1920" height="1080" fill="#101010"></rect><path d="M0 638L64 657C128 676 256 714 384 744.7C512 775.3 640 798.7 768 794.7C896 790.7 1024 759.3 1152 733.2C1280 707 1408 686 1536 668.8C1664 651.7 1792 638.3 1856 631.7L1920 625L1920 1081L1856 1081C1792 1081 1664 1081 1536 1081C1408 1081 1280 1081 1152 1081C1024 1081 896 1081 768 1081C640 1081 512 1081 384 1081C256 1081 128 1081 64 1081L0 1081Z" fill="#2e0c38"></path><path d="M0 900L64 874.5C128 849 256 798 384 790.3C512 782.7 640 818.3 768 841.5C896 864.7 1024 875.3 1152 853.3C1280 831.3 1408 776.7 1536 751.2C1664 725.7 1792 729.3 1856 731.2L1920 733L1920 1081L1856 1081C1792 1081 1664 1081 1536 1081C1408 1081 1280 1081 1152 1081C1024 1081 896 1081 768 1081C640 1081 512 1081 384 1081C256 1081 128 1081 64 1081L0 1081Z" fill="#501045"></path><path d="M0 785L64 817.5C128 850 256 915 384 917.2C512 919.3 640 858.7 768 841.7C896 824.7 1024 851.3 1152 882.7C1280 914 1408 950 1536 938.2C1664 926.3 1792 866.7 1856 836.8L1920 807L1920 1081L1856 1081C1792 1081 1664 1081 1536 1081C1408 1081 1280 1081 1152 1081C1024 1081 896 1081 768 1081C640 1081 512 1081 384 1081C256 1081 128 1081 64 1081L0 1081Z" fill="#74134c"></path><path d="M0 1046L64 1042C128 1038 256 1030 384 1011.2C512 992.3 640 962.7 768 953.3C896 944 1024 955 1152 949C1280 943 1408 920 1536 910.2C1664 900.3 1792 903.7 1856 905.3L1920 907L1920 1081L1856 1081C1792 1081 1664 1081 1536 1081C1408 1081 1280 1081 1152 1081C1024 1081 896 1081 768 1081C640 1081 512 1081 384 1081C256 1081 128 1081 64 1081L0 1081Z" fill="#971a4e"></path></svg>