<svg id="visual" viewBox="0 0 1920 1080" width="1920" height="1080" xmlns="http://www.w3.org/2000/svg" xmlns:xlink="http://www.w3.org/1999/xlink" version="1.1"><rect x="0" y="0" width="1920" height="1080" fill="#101010"></rect><path d="M0 710L64 686.5C128 663 256 616 384 594C512 572 640 575 768 591.3C896 607.7 1024 637.3 1152 663.3C1280 689.3 1408 711.7 1536 708.7C1664 705.7 1792 677.3 1856 663.2L1920 649L1920 1081L1856 1081C1792 1081 1664 1081 1536 1081C1408 1081 1280 1081 1152 1081C1024 1081 896 1081 768 1081C640 1081 512 1081 384 1081C256 1081 128 1081 64 1081L0 1081Z" fill="#2e0c38"></path><path d="M0 877L64 850.7C128 824.3 256 771.7 384 743.3C512 715 640 711 768 743C896 775 1024 843 1152 855.5C1280 868 1408 825 1536 783.7C1664 742.3 1792 702.7 1856 682.8L1920 663L1920 1081L1856 1081C1792 1081 1664 1081 1536 1081C1408 1081 1280 1081 1152 1081C1024 1081 896 1081 768 1081C640 1081 512 1081 384 1081C256 1081 128 1081 64 1081L0 1081Z" fill="#501045"></path><path d="M0 842L64 851.8C128 861.7 256 881.3 384 890.2C512 899 640 897 768 885.5C896 874 1024 853 1152 845.3C1280 837.7 1408 843.3 1536 860.8C1664 878.3 1792 907.7 1856 922.3L1920 937L1920 1081L1856 1081C1792 1081 1664 1081 1536 1081C1408 1081 1280 1081 1152 1081C1024 1081 896 1081 768 1081C640 1081 512 1081 384 1081C256 1081 128 1081 64 1081L0 1081Z" fill="#74134c"></path><path d="M0 1011L64 1015.2C128 1019.3 256 1027.7 384 1027.7C512 1027.7 640 1019.3 768 1019C896 1018.7 1024 1026.3 1152 1022.2C1280 1018 1408 1002 1536 979.3C1664 956.7 1792 927.3 1856 912.7L1920 898L1920 1081L1856 1081C1792 1081 1664 1081 1536 1081C1408 1081 1280 1081 1152 1081C1024 1081 896 1081 768 1081C640 1081 512 1081 384 1081C256 1081 128 1081 64 1081L0 1081Z" fill="#971a4e"></path></svg>