<svg id="visual" viewBox="0 0 960 540" width="1920" height="1080" xmlns="http://www.w3.org/2000/svg" xmlns:xlink="http://www.w3.org/1999/xlink" version="1.1"><rect x="0" y="0" width="960" height="540" fill="#111"></rect><path d="M0 180L13.3 194.3C26.7 208.7 53.3 237.3 80 233.3C106.7 229.3 133.3 192.7 160 185.7C186.7 178.7 213.3 201.3 240 216.2C266.7 231 293.3 238 320 225.7C346.7 213.3 373.3 181.7 400 164.3C426.7 147 453.3 144 480 148C506.7 152 533.3 163 560 171.8C586.7 180.7 613.3 187.3 640 186.5C666.7 185.7 693.3 177.3 720 179.8C746.7 182.3 773.3 195.7 800 203C826.7 210.3 853.3 211.7 880 215C906.7 218.3 933.3 223.7 946.7 226.3L960 229L960 541L946.7 541C933.3 541 906.7 541 880 541C853.3 541 826.7 541 800 541C773.3 541 746.7 541 720 541C693.3 541 666.7 541 640 541C613.3 541 586.7 541 560 541C533.3 541 506.7 541 480 541C453.3 541 426.7 541 400 541C373.3 541 346.7 541 320 541C293.3 541 266.7 541 240 541C213.3 541 186.7 541 160 541C133.3 541 106.7 541 80 541C53.3 541 26.7 541 13.3 541L0 541Z" fill="#2e0c38"></path><path d="M0 285L13.3 288.8C26.7 292.7 53.3 300.3 80 297C106.7 293.7 133.3 279.3 160 272.2C186.7 265 213.3 265 240 269.8C266.7 274.7 293.3 284.3 320 275.8C346.7 267.3 373.3 240.7 400 230C426.7 219.3 453.3 224.7 480 221.5C506.7 218.3 533.3 206.7 560 217.2C586.7 227.7 613.3 260.3 640 267C666.7 273.7 693.3 254.3 720 260.2C746.7 266 773.3 297 800 298.2C826.7 299.3 853.3 270.7 880 261.5C906.7 252.3 933.3 262.7 946.7 267.8L960 273L960 541L946.7 541C933.3 541 906.7 541 880 541C853.3 541 826.7 541 800 541C773.3 541 746.7 541 720 541C693.3 541 666.7 541 640 541C613.3 541 586.7 541 560 541C533.3 541 506.7 541 480 541C453.3 541 426.7 541 400 541C373.3 541 346.7 541 320 541C293.3 541 266.7 541 240 541C213.3 541 186.7 541 160 541C133.3 541 106.7 541 80 541C53.3 541 26.7 541 13.3 541L0 541Z" fill="#420e40"></path><path d="M0 317L13.3 319C26.7 321 53.3 325 80 326.2C106.7 327.3 133.3 325.7 160 330.8C186.7 336 213.3 348 240 354.8C266.7 361.7 293.3 363.3 320 350.3C346.7 337.3 373.3 309.7 400 306.7C426.7 303.7 453.3 325.3 480 326.5C506.7 327.7 533.3 308.3 560 308.3C586.7 308.3 613.3 327.7 640 325C666.7 322.3 693.3 297.7 720 285.5C746.7 273.3 773.3 273.7 800 283.7C826.7 293.7 853.3 313.3 880 310.3C906.7 307.3 933.3 281.7 946.7 268.8L960 256L960 541L946.7 541C933.3 541 906.7 541 880 541C853.3 541 826.7 541 800 541C773.3 541 746.7 541 720 541C693.3 541 666.7 541 640 541C613.3 541 586.7 541 560 541C533.3 541 506.7 541 480 541C453.3 541 426.7 541 400 541C373.3 541 346.7 541 320 541C293.3 541 266.7 541 240 541C213.3 541 186.7 541 160 541C133.3 541 106.7 541 80 541C53.3 541 26.7 541 13.3 541L0 541Z" fill="#571047"></path><path d="M0 352L13.3 348.8C26.7 345.7 53.3 339.3 80 343.2C106.7 347 133.3 361 160 368.8C186.7 376.7 213.3 378.3 240 376.7C266.7 375 293.3 370 320 365.2C346.7 360.3 373.3 355.7 400 350C426.7 344.3 453.3 337.7 480 335.8C506.7 334 533.3 337 560 334.3C586.7 331.7 613.3 323.3 640 328.8C666.7 334.3 693.3 353.7 720 363.3C746.7 373 773.3 373 800 379C826.7 385 853.3 397 880 394.2C906.7 391.3 933.3 373.7 946.7 364.8L960 356L960 541L946.7 541C933.3 541 906.7 541 880 541C853.3 541 826.7 541 800 541C773.3 541 746.7 541 720 541C693.3 541 666.7 541 640 541C613.3 541 586.7 541 560 541C533.3 541 506.7 541 480 541C453.3 541 426.7 541 400 541C373.3 541 346.7 541 320 541C293.3 541 266.7 541 240 541C213.3 541 186.7 541 160 541C133.3 541 106.7 541 80 541C53.3 541 26.7 541 13.3 541L0 541Z" fill="#6d124b"></path><path d="M0 379L13.3 390C26.7 401 53.3 423 80 426.5C106.7 430 133.3 415 160 416.8C186.7 418.7 213.3 437.3 240 442C266.7 446.7 293.3 437.3 320 437.3C346.7 437.3 373.3 446.7 400 446.8C426.7 447 453.3 438 480 438.2C506.7 438.3 533.3 447.7 560 449.8C586.7 452 613.3 447 640 436.5C666.7 426 693.3 410 720 407.7C746.7 405.3 773.3 416.7 800 425.8C826.7 435 853.3 442 880 442.8C906.7 443.7 933.3 438.3 946.7 435.7L960 433L960 541L946.7 541C933.3 541 906.7 541 880 541C853.3 541 826.7 541 800 541C773.3 541 746.7 541 720 541C693.3 541 666.7 541 640 541C613.3 541 586.7 541 560 541C533.3 541 506.7 541 480 541C453.3 541 426.7 541 400 541C373.3 541 346.7 541 320 541C293.3 541 266.7 541 240 541C213.3 541 186.7 541 160 541C133.3 541 106.7 541 80 541C53.3 541 26.7 541 13.3 541L0 541Z" fill="#82154e"></path><path d="M0 473L13.3 478C26.7 483 53.3 493 80 487.5C106.7 482 133.3 461 160 459.3C186.7 457.7 213.3 475.3 240 478.2C266.7 481 293.3 469 320 461.3C346.7 453.7 373.3 450.3 400 450.5C426.7 450.7 453.3 454.3 480 454.7C506.7 455 533.3 452 560 450.2C586.7 448.3 613.3 447.7 640 447.2C666.7 446.7 693.3 446.3 720 454C746.7 461.7 773.3 477.3 800 482.3C826.7 487.3 853.3 481.7 880 482.3C906.7 483 933.3 490 946.7 493.5L960 497L960 541L946.7 541C933.3 541 906.7 541 880 541C853.3 541 826.7 541 800 541C773.3 541 746.7 541 720 541C693.3 541 666.7 541 640 541C613.3 541 586.7 541 560 541C533.3 541 506.7 541 480 541C453.3 541 426.7 541 400 541C373.3 541 346.7 541 320 541C293.3 541 266.7 541 240 541C213.3 541 186.7 541 160 541C133.3 541 106.7 541 80 541C53.3 541 26.7 541 13.3 541L0 541Z" fill="#971a4e"></path></svg>