<svg id="visual" viewBox="0 0 1920 1080" width="1920" height="1080" xmlns="http://www.w3.org/2000/svg" xmlns:xlink="http://www.w3.org/1999/xlink" version="1.1"><rect x="0" y="0" width="1920" height="1080" fill="#101010"></rect><defs><linearGradient id="grad1_0" x1="43.8%" y1="0%" x2="100%" y2="100%"><stop offset="14.444444444444446%" stop-color="#2e0c38" stop-opacity="1"></stop><stop offset="85.55555555555554%" stop-color="#2e0c38" stop-opacity="1"></stop></linearGradient></defs><defs><linearGradient id="grad1_1" x1="43.8%" y1="0%" x2="100%" y2="100%"><stop offset="14.444444444444446%" stop-color="#2e0c38" stop-opacity="1"></stop><stop offset="85.55555555555554%" stop-color="#250f2b" stop-opacity="1"></stop></linearGradient></defs><defs><linearGradient id="grad1_2" x1="43.8%" y1="0%" x2="100%" y2="100%"><stop offset="14.444444444444446%" stop-color="#1b101e" stop-opacity="1"></stop><stop offset="85.55555555555554%" stop-color="#250f2b" stop-opacity="1"></stop></linearGradient></defs><defs><linearGradient id="grad1_3" x1="43.8%" y1="0%" x2="100%" y2="100%"><stop offset="14.444444444444446%" stop-color="#1b101e" stop-opacity="1"></stop><stop offset="85.55555555555554%" stop-color="#101010" stop-opacity="1"></stop></linearGradient></defs><defs><linearGradient id="grad2_0" x1="0%" y1="0%" x2="56.3%" y2="100%"><stop offset="14.444444444444446%" stop-color="#2e0c38" stop-opacity="1"></stop><stop offset="85.55555555555554%" stop-color="#2e0c38" stop-opacity="1"></stop></linearGradient></defs><defs><linearGradient id="grad2_1" x1="0%" y1="0%" x2="56.3%" y2="100%"><stop offset="14.444444444444446%" stop-color="#250f2b" stop-opacity="1"></stop><stop offset="85.55555555555554%" stop-color="#2e0c38" stop-opacity="1"></stop></linearGradient></defs><defs><linearGradient id="grad2_2" x1="0%" y1="0%" x2="56.3%" y2="100%"><stop offset="14.444444444444446%" stop-color="#250f2b" stop-opacity="1"></stop><stop offset="85.55555555555554%" stop-color="#1b101e" stop-opacity="1"></stop></linearGradient></defs><defs><linearGradient id="grad2_3" x1="0%" y1="0%" x2="56.3%" y2="100%"><stop offset="14.444444444444446%" stop-color="#101010" stop-opacity="1"></stop><stop offset="85.55555555555554%" stop-color="#1b101e" stop-opacity="1"></stop></linearGradient></defs><g transform="translate(1920, 0)"><path d="M0 648C-86.2 640.7 -172.4 633.5 -248 598.7C-323.6 563.9 -388.5 501.5 -434.9 434.9C-481.2 368.3 -509 297.4 -541.4 224.3C-573.8 151.1 -610.9 75.5 -648 0L0 0Z" fill="#161017"></path><path d="M0 486C-64.6 480.6 -129.3 475.1 -186 449C-242.7 422.9 -291.4 376.1 -326.2 326.2C-360.9 276.2 -381.7 223.1 -406 168.2C-430.4 113.3 -458.2 56.7 -486 0L0 0Z" fill="#201024"></path><path d="M0 324C-43.1 320.4 -86.2 316.7 -124 299.3C-161.8 281.9 -194.3 250.7 -217.4 217.4C-240.6 184.1 -254.5 148.7 -270.7 112.1C-286.9 75.5 -305.5 37.8 -324 0L0 0Z" fill="#290e31"></path><path d="M0 162C-21.5 160.2 -43.1 158.4 -62 149.7C-80.9 141 -97.1 125.4 -108.7 108.7C-120.3 92.1 -127.2 74.4 -135.3 56.1C-143.5 37.8 -152.7 18.9 -162 0L0 0Z" fill="#2e0c38"></path></g><g transform="translate(0, 1080)"><path d="M0 -648C83.9 -637 167.9 -626.1 247.2 -596.8C326.5 -567.6 401.3 -520 458.2 -458.2C515.1 -396.4 554.3 -320.2 583 -241.5C611.6 -162.7 629.8 -81.4 648 0L0 0Z" fill="#161017"></path><path d="M0 -486C63 -477.8 125.9 -469.6 185.4 -447.6C244.9 -425.7 300.9 -390 343.7 -343.7C386.4 -297.3 415.7 -240.2 437.2 -181.1C458.7 -122 472.4 -61 486 0L0 0Z" fill="#201024"></path><path d="M0 -324C42 -318.5 83.9 -313 123.6 -298.4C163.3 -283.8 200.6 -260 229.1 -229.1C257.6 -198.2 277.1 -160.1 291.5 -120.7C305.8 -81.4 314.9 -40.7 324 0L0 0Z" fill="#290e31"></path><path d="M0 -162C21 -159.3 42 -156.5 61.8 -149.2C81.6 -141.9 100.3 -130 114.6 -114.6C128.8 -99.1 138.6 -80.1 145.7 -60.4C152.9 -40.7 157.5 -20.3 162 0L0 0Z" fill="#2e0c38"></path></g></svg>