<svg id="visual" viewBox="0 0 1920 1080" width="1920" height="1080" xmlns="http://www.w3.org/2000/svg" xmlns:xlink="http://www.w3.org/1999/xlink" version="1.1"><rect x="0" y="0" width="1920" height="1080" fill="#101010"></rect><defs><linearGradient id="grad1_0" x1="43.8%" y1="0%" x2="100%" y2="100%"><stop offset="14.444444444444446%" stop-color="#2e0c38" stop-opacity="1"></stop><stop offset="85.55555555555554%" stop-color="#2e0c38" stop-opacity="1"></stop></linearGradient></defs><defs><linearGradient id="grad1_1" x1="43.8%" y1="0%" x2="100%" y2="100%"><stop offset="14.444444444444446%" stop-color="#2e0c38" stop-opacity="1"></stop><stop offset="85.55555555555554%" stop-color="#250f2b" stop-opacity="1"></stop></linearGradient></defs><defs><linearGradient id="grad1_2" x1="43.8%" y1="0%" x2="100%" y2="100%"><stop offset="14.444444444444446%" stop-color="#1b101e" stop-opacity="1"></stop><stop offset="85.55555555555554%" stop-color="#250f2b" stop-opacity="1"></stop></linearGradient></defs><defs><linearGradient id="grad1_3" x1="43.8%" y1="0%" x2="100%" y2="100%"><stop offset="14.444444444444446%" stop-color="#1b101e" stop-opacity="1"></stop><stop offset="85.55555555555554%" stop-color="#101010" stop-opacity="1"></stop></linearGradient></defs><defs><linearGradient id="grad2_0" x1="0%" y1="0%" x2="56.3%" y2="100%"><stop offset="14.444444444444446%" stop-color="#2e0c38" stop-opacity="1"></stop><stop offset="85.55555555555554%" stop-color="#2e0c38" stop-opacity="1"></stop></linearGradient></defs><defs><linearGradient id="grad2_1" x1="0%" y1="0%" x2="56.3%" y2="100%"><stop offset="14.444444444444446%" stop-color="#250f2b" stop-opacity="1"></stop><stop offset="85.55555555555554%" stop-color="#2e0c38" stop-opacity="1"></stop></linearGradient></defs><defs><linearGradient id="grad2_2" x1="0%" y1="0%" x2="56.3%" y2="100%"><stop offset="14.444444444444446%" stop-color="#250f2b" stop-opacity="1"></stop><stop offset="85.55555555555554%" stop-color="#1b101e" stop-opacity="1"></stop></linearGradient></defs><defs><linearGradient id="grad2_3" x1="0%" y1="0%" x2="56.3%" y2="100%"><stop offset="14.444444444444446%" stop-color="#101010" stop-opacity="1"></stop><stop offset="85.55555555555554%" stop-color="#1b101e" stop-opacity="1"></stop></linearGradient></defs><g transform="translate(1920, 0)"><path d="M0 838C-126.8 864.6 -253.6 891.1 -353.2 852.7C-452.9 814.4 -525.3 711.1 -625.8 625.8C-726.2 540.5 -854.6 473.3 -898 372C-941.4 270.7 -899.7 135.3 -858 0L0 0Z" fill="#161017"></path><path d="M0 628.5C-95.1 648.4 -190.2 668.3 -264.9 639.6C-339.6 610.8 -394 533.3 -469.3 469.3C-544.7 405.4 -641 354.9 -673.5 279C-706 203 -674.8 101.5 -643.5 0L0 0Z" fill="#201024"></path><path d="M0 419C-63.4 432.3 -126.8 445.6 -176.6 426.4C-226.4 407.2 -262.7 355.5 -312.9 312.9C-363.1 270.3 -427.3 236.6 -449 186C-470.7 135.3 -449.8 67.7 -429 0L0 0Z" fill="#290e31"></path><path d="M0 209.5C-31.7 216.1 -63.4 222.8 -88.3 213.2C-113.2 203.6 -131.3 177.8 -156.4 156.4C-181.6 135.1 -213.7 118.3 -224.5 93C-235.3 67.7 -224.9 33.8 -214.5 0L0 0Z" fill="#2e0c38"></path></g><g transform="translate(0, 1080)"><path d="M0 -952C137.8 -956.4 275.5 -960.8 372 -898C468.4 -835.2 523.6 -705.2 609.5 -609.5C695.5 -513.9 812.2 -452.5 861.1 -356.7C909.9 -260.8 891 -130.4 872 0L0 0Z" fill="#161017"></path><path d="M0 -714C103.3 -717.3 206.6 -720.6 279 -673.5C351.3 -626.4 392.7 -528.9 457.1 -457.1C521.6 -385.4 609.1 -339.4 645.8 -267.5C682.4 -195.6 668.2 -97.8 654 0L0 0Z" fill="#201024"></path><path d="M0 -476C68.9 -478.2 137.8 -480.4 186 -449C234.2 -417.6 261.8 -352.6 304.8 -304.8C347.7 -256.9 406.1 -226.3 430.5 -178.3C455 -130.4 445.5 -65.2 436 0L0 0Z" fill="#290e31"></path><path d="M0 -238C34.4 -239.1 68.9 -240.2 93 -224.5C117.1 -208.8 130.9 -176.3 152.4 -152.4C173.9 -128.5 203 -113.1 215.3 -89.2C227.5 -65.2 222.7 -32.6 218 0L0 0Z" fill="#2e0c38"></path></g></svg>