<svg id="visual" viewBox="0 0 1920 1080" width="1920" height="1080" xmlns="http://www.w3.org/2000/svg" xmlns:xlink="http://www.w3.org/1999/xlink" version="1.1"><rect x="0" y="0" width="1920" height="1080" fill="#101010"></rect><defs><linearGradient id="grad1_0" x1="43.8%" y1="100%" x2="100%" y2="0%"><stop offset="14.444444444444446%" stop-color="#82154e" stop-opacity="1"></stop><stop offset="85.55555555555554%" stop-color="#82154e" stop-opacity="1"></stop></linearGradient></defs><defs><linearGradient id="grad1_1" x1="43.8%" y1="100%" x2="100%" y2="0%"><stop offset="14.444444444444446%" stop-color="#82154e" stop-opacity="1"></stop><stop offset="85.55555555555554%" stop-color="#5a1a38" stop-opacity="1"></stop></linearGradient></defs><defs><linearGradient id="grad1_2" x1="43.8%" y1="100%" x2="100%" y2="0%"><stop offset="14.444444444444446%" stop-color="#351824" stop-opacity="1"></stop><stop offset="85.55555555555554%" stop-color="#5a1a38" stop-opacity="1"></stop></linearGradient></defs><defs><linearGradient id="grad1_3" x1="43.8%" y1="100%" x2="100%" y2="0%"><stop offset="14.444444444444446%" stop-color="#351824" stop-opacity="1"></stop><stop offset="85.55555555555554%" stop-color="#101010" stop-opacity="1"></stop></linearGradient></defs><defs><linearGradient id="grad2_0" x1="0%" y1="100%" x2="56.3%" y2="0%"><stop offset="14.444444444444446%" stop-color="#82154e" stop-opacity="1"></stop><stop offset="85.55555555555554%" stop-color="#82154e" stop-opacity="1"></stop></linearGradient></defs><defs><linearGradient id="grad2_1" x1="0%" y1="100%" x2="56.3%" y2="0%"><stop offset="14.444444444444446%" stop-color="#5a1a38" stop-opacity="1"></stop><stop offset="85.55555555555554%" stop-color="#82154e" stop-opacity="1"></stop></linearGradient></defs><defs><linearGradient id="grad2_2" x1="0%" y1="100%" x2="56.3%" y2="0%"><stop offset="14.444444444444446%" stop-color="#5a1a38" stop-opacity="1"></stop><stop offset="85.55555555555554%" stop-color="#351824" stop-opacity="1"></stop></linearGradient></defs><defs><linearGradient id="grad2_3" x1="0%" y1="100%" x2="56.3%" y2="0%"><stop offset="14.444444444444446%" stop-color="#101010" stop-opacity="1"></stop><stop offset="85.55555555555554%" stop-color="#351824" stop-opacity="1"></stop></linearGradient></defs><g transform="translate(1920, 1080)"><path d="M-849 0C-805.9 -76.3 -762.7 -152.6 -746.6 -242.6C-730.4 -332.6 -741.3 -436.4 -695.8 -505.5C-650.2 -574.6 -548.3 -609.2 -463.2 -637.5C-378.1 -665.8 -309.9 -688 -235.5 -724.7C-161.1 -761.4 -80.5 -812.7 0 -864L0 0Z" fill="#23151a"></path><path d="M-636.7 0C-604.4 -57.2 -572 -114.4 -559.9 -181.9C-547.8 -249.4 -556 -327.3 -521.8 -379.1C-487.7 -431 -411.2 -456.9 -347.4 -478.1C-283.6 -499.4 -232.4 -516 -176.6 -543.5C-120.8 -571.1 -60.4 -609.5 0 -648L0 0Z" fill="#471a2e"></path><path d="M-424.5 0C-402.9 -38.1 -381.4 -76.3 -373.3 -121.3C-365.2 -166.3 -370.6 -218.2 -347.9 -252.7C-325.1 -287.3 -274.1 -304.6 -231.6 -318.8C-189 -332.9 -154.9 -344 -117.7 -362.4C-80.5 -380.7 -40.3 -406.4 0 -432L0 0Z" fill="#6e1943"></path><path d="M-212.2 0C-201.5 -19.1 -190.7 -38.1 -186.6 -60.6C-182.6 -83.1 -185.3 -109.1 -173.9 -126.4C-162.6 -143.7 -137.1 -152.3 -115.8 -159.4C-94.5 -166.5 -77.5 -172 -58.9 -181.2C-40.3 -190.4 -20.1 -203.2 0 -216L0 0Z" fill="#82154e"></path></g><g transform="translate(0, 0)"><path d="M817 0C774.3 72.7 731.6 145.3 716.1 232.7C700.7 320.1 712.6 422.1 669.1 486.1C625.5 550.1 526.7 575.9 450.8 620.5C375 665.1 322.2 728.5 250.9 772.3C179.6 816 89.8 840 0 864L0 0Z" fill="#23151a"></path><path d="M612.8 0C580.7 54.5 548.7 109 537.1 174.5C525.5 240 534.4 316.6 501.8 364.6C469.2 412.5 395 431.9 338.1 465.4C281.3 498.9 241.7 546.4 188.2 579.2C134.7 612 67.4 630 0 648L0 0Z" fill="#471a2e"></path><path d="M408.5 0C387.1 36.3 365.8 72.7 358.1 116.3C350.4 160 356.3 211.1 334.5 243C312.8 275 263.3 287.9 225.4 310.3C187.5 332.6 161.1 364.3 125.5 386.1C89.8 408 44.9 420 0 432L0 0Z" fill="#6e1943"></path><path d="M204.3 0C193.6 18.2 182.9 36.3 179 58.2C175.2 80 178.1 105.5 167.3 121.5C156.4 137.5 131.7 144 112.7 155.1C93.8 166.3 80.6 182.1 62.7 193.1C44.9 204 22.5 210 0 216L0 0Z" fill="#82154e"></path></g></svg>