<svg id="visual" viewBox="0 0 1920 1080" width="1920" height="1080" xmlns="http://www.w3.org/2000/svg" xmlns:xlink="http://www.w3.org/1999/xlink" version="1.1"><rect x="0" y="0" width="1920" height="1080" fill="#101010"></rect><defs><linearGradient id="grad1_0" x1="43.8%" y1="100%" x2="100%" y2="0%"><stop offset="14.444444444444446%" stop-color="#971a4e" stop-opacity="1"></stop><stop offset="85.55555555555554%" stop-color="#971a4e" stop-opacity="1"></stop></linearGradient></defs><defs><linearGradient id="grad1_1" x1="43.8%" y1="100%" x2="100%" y2="0%"><stop offset="14.444444444444446%" stop-color="#971a4e" stop-opacity="1"></stop><stop offset="85.55555555555554%" stop-color="#681e38" stop-opacity="1"></stop></linearGradient></defs><defs><linearGradient id="grad1_2" x1="43.8%" y1="100%" x2="100%" y2="0%"><stop offset="14.444444444444446%" stop-color="#3b1a24" stop-opacity="1"></stop><stop offset="85.55555555555554%" stop-color="#681e38" stop-opacity="1"></stop></linearGradient></defs><defs><linearGradient id="grad1_3" x1="43.8%" y1="100%" x2="100%" y2="0%"><stop offset="14.444444444444446%" stop-color="#3b1a24" stop-opacity="1"></stop><stop offset="85.55555555555554%" stop-color="#101010" stop-opacity="1"></stop></linearGradient></defs><defs><linearGradient id="grad2_0" x1="0%" y1="100%" x2="56.3%" y2="0%"><stop offset="14.444444444444446%" stop-color="#971a4e" stop-opacity="1"></stop><stop offset="85.55555555555554%" stop-color="#971a4e" stop-opacity="1"></stop></linearGradient></defs><defs><linearGradient id="grad2_1" x1="0%" y1="100%" x2="56.3%" y2="0%"><stop offset="14.444444444444446%" stop-color="#681e38" stop-opacity="1"></stop><stop offset="85.55555555555554%" stop-color="#971a4e" stop-opacity="1"></stop></linearGradient></defs><defs><linearGradient id="grad2_2" x1="0%" y1="100%" x2="56.3%" y2="0%"><stop offset="14.444444444444446%" stop-color="#681e38" stop-opacity="1"></stop><stop offset="85.55555555555554%" stop-color="#3b1a24" stop-opacity="1"></stop></linearGradient></defs><defs><linearGradient id="grad2_3" x1="0%" y1="100%" x2="56.3%" y2="0%"><stop offset="14.444444444444446%" stop-color="#101010" stop-opacity="1"></stop><stop offset="85.55555555555554%" stop-color="#3b1a24" stop-opacity="1"></stop></linearGradient></defs><g transform="translate(1920, 1080)"><path d="M-648 0C-626.5 -78.3 -605 -156.6 -578.3 -239.6C-551.7 -322.5 -519.9 -410.2 -458.2 -458.2C-396.5 -506.2 -304.8 -514.5 -223.5 -539.5C-142.1 -564.6 -71.1 -606.3 0 -648L0 0Z" fill="#26161a"></path><path d="M-486 0C-469.9 -58.7 -453.7 -117.4 -433.8 -179.7C-413.8 -241.9 -389.9 -307.7 -343.7 -343.7C-297.4 -379.7 -228.6 -385.9 -167.6 -404.7C-106.6 -423.4 -53.3 -454.7 0 -486L0 0Z" fill="#511c2e"></path><path d="M-324 0C-313.2 -39.1 -302.5 -78.3 -289.2 -119.8C-275.9 -161.3 -260 -205.1 -229.1 -229.1C-198.2 -253.1 -152.4 -257.3 -111.7 -269.8C-71.1 -282.3 -35.5 -303.1 0 -324L0 0Z" fill="#7f1d43"></path><path d="M-162 0C-156.6 -19.6 -151.2 -39.1 -144.6 -59.9C-137.9 -80.6 -130 -102.6 -114.6 -114.6C-99.1 -126.6 -76.2 -128.6 -55.9 -134.9C-35.5 -141.1 -17.8 -151.6 0 -162L0 0Z" fill="#971a4e"></path></g><g transform="translate(0, 0)"><path d="M648 0C634.8 87.6 621.7 175.2 579.3 239.9C536.9 304.7 465.2 346.7 409.4 409.4C353.6 472.1 313.6 555.5 248 598.7C182.4 641.9 91.2 644.9 0 648L0 0Z" fill="#26161a"></path><path d="M486 0C476.1 65.7 466.3 131.4 434.5 180C402.7 228.5 348.9 260 307.1 307.1C265.2 354.1 235.2 416.6 186 449C136.8 481.4 68.4 483.7 0 486L0 0Z" fill="#511c2e"></path><path d="M324 0C317.4 43.8 310.8 87.6 289.6 120C268.4 152.4 232.6 173.4 204.7 204.7C176.8 236 156.8 277.7 124 299.3C91.2 320.9 45.6 322.5 0 324L0 0Z" fill="#7f1d43"></path><path d="M162 0C158.7 21.9 155.4 43.8 144.8 60C134.2 76.2 116.3 86.7 102.4 102.4C88.4 118 78.4 138.9 62 149.7C45.6 160.5 22.8 161.2 0 162L0 0Z" fill="#971a4e"></path></g></svg>